<?xml version="1.0" encoding="UTF-8"?>
<svg version="1.1" xmlns="http://www.w3.org/2000/svg" x="0px" y="0px" viewBox="0 0 1000 1000" enable-background="new 0 0 1000 1000" xml:space="preserve">
<path d="M501.9,10.9c66.6,0,129.4,13,188.6,38.9c59.2,25.9,110.9,61,155.3,105.4c44.4,44.4,79.5,96.2,105.4,155.3c25.9,59.2,38.8,122.7,38.8,190.5c0,67.8-12.9,131.3-38.8,190.4c-25.9,59.2-61,111-105.4,155.4c-44.4,44.4-96.2,79.2-155.3,104.4c-59.2,25.3-122.1,37.9-188.6,37.9c
-67.8,0-131.6-12.6-191.4-37.9c-59.8-25.3-111.9-60.1-156.2-104.4c-44.4-44.4-79.5-96.2-105.4-155.4C22.9,632.2,10,568.7,10,500.9c0-67.8,12.9-131.3,38.8-190.5c25.9-59.2,61-110.9,105.4-155.3c44.4-44.4,96.5-79.5,156.2-105.4C370.3,23.9,434.1,10.9,501.9,10.9z M501.9,891.1c53,0,103.2-10.2,150.7-30.5c47.5-20.3,88.8-48.1,123.9-83.2c35.1-35.2,62.8-76.4,83.2-123.9c20.4-47.5,30.6-98.3,30.6-152.5c0-54.2-10.2-105.1-30.6-152.5c-20.3-47.4-48.1-89.1-83.2-124.8c-35.2-35.8-76.5-63.8-123.9-84.1c-47.5-20.3-97.7-30.5-150.7-30.5c-54.2,0-105.4,10.2-153.5,30.5c-48.1,20.4-89.7,48.4-124.8,84.1c-35.1,35.8-62.9,77.4-83.2,124.8c-20.3,47.5-30.5,98.3-30.5,152.5c0,54.3,10.1,105.1,30.5,152.5c20.4,47.5,48.1,88.8,83.2,123.9c35.1,35.1,76.7,62.9,124.8,83.2C396.5,881,447.6,891.1,501.9,891.1z M501.9,205.1c19.7,0,36.7,7.1,50.8,21.3c14.2,14.2,21.3,31.7,21.3,52.7l-35.1,258.9c-3.7,17.3-8.4,28.7-13.9,34.2c-5.6,5.6-13.3,8.3-23.1,8.3c-11.1,0-19.7-2.2-25.9-6.5c-6.1-4.3-10.5-16.3-12.9-36.1l-37-258.9c0-21,7.4-38.5,22.2-52.7C463,212.2,480.9,205.1,501.9,205.1z M501.9,647c19.7,0,36.7,7.1,50.8,21.3C566.9,682.5,574,700,574,721c0,19.7-7.1,37-21.3,51.7c-14.1,14.8-31.1,22.2-50.8,22.2c-20.9,0-38.8-7.4-53.6-22.2C433.4,758,426,740.7,426,721c0-21,7.4-38.5,22.2-52.7C463,654.1,480.9,647,501.9,647z"/>
</svg>
